# xmcd CD database file
#
# Track frame offsets:
#	150
#	16351
#	29677
#	50050
#	62073
#	76082
#	101261
#	117228
#	134586
#	152874
#	167768
#	186301
#
# Disc length: 3059 seconds
#
# Revision: 2
# Processed by: cddbd v1.5.2PL0 Copyright (c) Steve Scherf et al.
# Submitted via: CDex 1.70beta2
#
DISCID=a10bf10c
DTITLE=Magic Arm - Makes Lists Do Something
DYEAR=2009
DGENRE=
TTITLE0=Widths and Heights
TTITLE1=Bootsy Bootsy
TTITLE2=Outdoor Games
TTITLE3=Move Out
TTITLE4=The Coach House
TTITLE5=Getting the Way
TTITLE6=Slates on a Roof
TTITLE7=Six Cold Feet in the Ground
TTITLE8=Rested Bones
TTITLE9=Daft Punk Is Playing at My House
TTITLE10=People Need Order
TTITLE11=Sound of the Night
EXTD=YEAR: 2009
EXTT0=
EXTT1=
EXTT2=
EXTT3=
EXTT4=
EXTT5=
EXTT6=
EXTT7=
EXTT8=
EXTT9=
EXTT10=
EXTT11=
PLAYORDER=
